<mxfile host="app.diagrams.net" modified="2022-09-14T02:37:03.096Z" agent="5.0 (Macintosh; Intel Mac OS X 10_15_7) AppleWebKit/537.36 (KHTML, like Gecko) Chrome/105.0.0.0 Safari/537.36 Edg/105.0.1343.33" etag="LRZ7YV4ZPwq2Cn617Zft" version="20.3.0" type="github">
  <diagram id="6a731a19-8d31-9384-78a2-239565b7b9f0" name="Page-1">
    <mxGraphModel dx="1426" dy="769" grid="1" gridSize="10" guides="1" tooltips="1" connect="1" arrows="1" fold="1" page="1" pageScale="1" pageWidth="1169" pageHeight="827" background="none" math="0" shadow="0">
      <root>
        <mxCell id="0" />
        <mxCell id="1" parent="0" />
        <mxCell id="Tmdwd9rkF0NVWTkqyMIO-68" value="" style="edgeStyle=orthogonalEdgeStyle;rounded=0;orthogonalLoop=1;jettySize=auto;html=1;" edge="1" parent="1" source="2" target="Tmdwd9rkF0NVWTkqyMIO-57">
          <mxGeometry relative="1" as="geometry" />
        </mxCell>
        <mxCell id="2" value="start" style="shape=mxgraph.flowchart.terminator;strokeWidth=2;gradientColor=none;gradientDirection=north;fontStyle=0;html=1;" parent="1" vertex="1">
          <mxGeometry x="260" y="40" width="120" height="30" as="geometry" />
        </mxCell>
        <mxCell id="Tmdwd9rkF0NVWTkqyMIO-60" value="" style="edgeStyle=orthogonalEdgeStyle;rounded=0;orthogonalLoop=1;jettySize=auto;html=1;entryX=0;entryY=0.5;entryDx=0;entryDy=0;" edge="1" parent="1" source="Tmdwd9rkF0NVWTkqyMIO-55" target="Tmdwd9rkF0NVWTkqyMIO-71">
          <mxGeometry relative="1" as="geometry">
            <mxPoint x="480" y="210" as="targetPoint" />
            <Array as="points" />
          </mxGeometry>
        </mxCell>
        <mxCell id="Tmdwd9rkF0NVWTkqyMIO-61" value="设备标签" style="edgeLabel;html=1;align=center;verticalAlign=middle;resizable=0;points=[];" vertex="1" connectable="0" parent="Tmdwd9rkF0NVWTkqyMIO-60">
          <mxGeometry x="-0.2667" y="-1" relative="1" as="geometry">
            <mxPoint y="-1" as="offset" />
          </mxGeometry>
        </mxCell>
        <mxCell id="Tmdwd9rkF0NVWTkqyMIO-70" value="设备组" style="edgeStyle=orthogonalEdgeStyle;rounded=0;orthogonalLoop=1;jettySize=auto;html=1;" edge="1" parent="1" source="Tmdwd9rkF0NVWTkqyMIO-55" target="Tmdwd9rkF0NVWTkqyMIO-62">
          <mxGeometry relative="1" as="geometry" />
        </mxCell>
        <mxCell id="Tmdwd9rkF0NVWTkqyMIO-55" value="判断分组规则" style="rhombus;whiteSpace=wrap;html=1;" vertex="1" parent="1">
          <mxGeometry x="280" y="230" width="80" height="80" as="geometry" />
        </mxCell>
        <mxCell id="Tmdwd9rkF0NVWTkqyMIO-69" value="" style="edgeStyle=orthogonalEdgeStyle;rounded=0;orthogonalLoop=1;jettySize=auto;html=1;" edge="1" parent="1" source="Tmdwd9rkF0NVWTkqyMIO-57" target="Tmdwd9rkF0NVWTkqyMIO-55">
          <mxGeometry relative="1" as="geometry" />
        </mxCell>
        <mxCell id="Tmdwd9rkF0NVWTkqyMIO-57" value="根据提交的密码组名称批量创建密码组" style="whiteSpace=wrap;html=1;" vertex="1" parent="1">
          <mxGeometry x="260" y="120" width="120" height="60" as="geometry" />
        </mxCell>
        <mxCell id="Tmdwd9rkF0NVWTkqyMIO-65" value="" style="edgeStyle=orthogonalEdgeStyle;rounded=0;orthogonalLoop=1;jettySize=auto;html=1;exitX=0.5;exitY=1;exitDx=0;exitDy=0;" edge="1" parent="1" source="Tmdwd9rkF0NVWTkqyMIO-62" target="Tmdwd9rkF0NVWTkqyMIO-64">
          <mxGeometry relative="1" as="geometry" />
        </mxCell>
        <mxCell id="Tmdwd9rkF0NVWTkqyMIO-62" value="根据提交的设备组 id以及填写的账号名称 查询设备组下设备账号" style="whiteSpace=wrap;html=1;" vertex="1" parent="1">
          <mxGeometry x="80" y="240" width="120" height="60" as="geometry" />
        </mxCell>
        <mxCell id="Tmdwd9rkF0NVWTkqyMIO-76" value="" style="edgeStyle=orthogonalEdgeStyle;rounded=0;orthogonalLoop=1;jettySize=auto;html=1;" edge="1" parent="1" source="Tmdwd9rkF0NVWTkqyMIO-64" target="Tmdwd9rkF0NVWTkqyMIO-75">
          <mxGeometry relative="1" as="geometry" />
        </mxCell>
        <mxCell id="Tmdwd9rkF0NVWTkqyMIO-64" value="批量新增密码组设备账号关联数据" style="whiteSpace=wrap;html=1;" vertex="1" parent="1">
          <mxGeometry x="260" y="420" width="120" height="60" as="geometry" />
        </mxCell>
        <mxCell id="Tmdwd9rkF0NVWTkqyMIO-73" value="" style="edgeStyle=orthogonalEdgeStyle;rounded=0;orthogonalLoop=1;jettySize=auto;html=1;entryX=0.5;entryY=0;entryDx=0;entryDy=0;exitX=0.5;exitY=1;exitDx=0;exitDy=0;" edge="1" parent="1" source="Tmdwd9rkF0NVWTkqyMIO-71" target="Tmdwd9rkF0NVWTkqyMIO-64">
          <mxGeometry relative="1" as="geometry">
            <mxPoint x="550" y="380" as="targetPoint" />
          </mxGeometry>
        </mxCell>
        <mxCell id="Tmdwd9rkF0NVWTkqyMIO-71" value="根据提交的设备标签 id 以及设备账号名称查询设备账号" style="rounded=0;whiteSpace=wrap;html=1;" vertex="1" parent="1">
          <mxGeometry x="479" y="240" width="120" height="60" as="geometry" />
        </mxCell>
        <mxCell id="Tmdwd9rkF0NVWTkqyMIO-75" value="end" style="shape=mxgraph.flowchart.terminator;strokeWidth=2;gradientColor=none;gradientDirection=north;fontStyle=0;html=1;" vertex="1" parent="1">
          <mxGeometry x="260" y="520" width="120" height="30" as="geometry" />
        </mxCell>
      </root>
    </mxGraphModel>
  </diagram>
</mxfile>
